
<global>
amp_veltrack=0
ampeg_attack=0.001
ampeg_release=1.5
</global>

<group>
group_label=RR1
seq_length=4
seq_position=1

<region>
hivel=103
key=G3
lovel=78
offset=6360
sample=Tenors_Solo_Drum_1_HotRods_Hit_F_D4_RR1.opus
</region>

<region>
hivel=127
key=G3
lovel=104
offset=4428
sample=Tenors_Solo_Drum_1_HotRods_Hit_FF_D4_RR1.opus
</region>

<region>
hivel=77
key=G3
lovel=52
offset=5795
sample=Tenors_Solo_Drum_1_HotRods_Hit_MF_D4_RR1.opus
</region>

<region>
hivel=51
key=G3
lovel=26
offset=4580
sample=Tenors_Solo_Drum_1_HotRods_Hit_MP_D4_RR1.opus
</region>

<region>
hivel=25
key=G3
lovel=0
offset=3228
sample=Tenors_Solo_Drum_1_HotRods_Hit_P_D4_RR1.opus
</region>

<region>
hivel=103
key=F#3
lovel=78
offset=4687
sample=Tenors_Solo_Drum_2_HotRods_Hit_F_D4_RR1.opus
</region>

<region>
hivel=127
key=F#3
lovel=104
offset=2897
sample=Tenors_Solo_Drum_2_HotRods_Hit_FF_D4_RR1.opus
</region>

<region>
hivel=77
key=F#3
lovel=52
offset=4582
sample=Tenors_Solo_Drum_2_HotRods_Hit_MF_D4_RR1.opus
</region>

<region>
hivel=51
key=F#3
lovel=26
offset=4040
sample=Tenors_Solo_Drum_2_HotRods_Hit_MP_D4_RR1.opus
</region>

<region>
hivel=25
key=F#3
lovel=0
offset=4674
sample=Tenors_Solo_Drum_2_HotRods_Hit_P_D4_RR1.opus
</region>

<region>
hivel=103
key=F3
lovel=78
offset=3858
sample=Tenors_Solo_Drum_3_HotRods_Hit_F_D4_RR1.opus
</region>

<region>
hivel=127
key=F3
lovel=104
offset=1204
sample=Tenors_Solo_Drum_3_HotRods_Hit_FF_D4_RR1.opus
</region>

<region>
hivel=77
key=F3
lovel=52
offset=4548
sample=Tenors_Solo_Drum_3_HotRods_Hit_MF_D4_RR1.opus
</region>

<region>
hivel=51
key=F3
lovel=26
offset=4075
sample=Tenors_Solo_Drum_3_HotRods_Hit_MP_D4_RR1.opus
</region>

<region>
hivel=25
key=F3
lovel=0
offset=4451
sample=Tenors_Solo_Drum_3_HotRods_Hit_P_D4_RR1.opus
</region>

<region>
hivel=103
key=E3
lovel=78
offset=4317
sample=Tenors_Solo_Drum_4_HotRods_Hit_F_D4_RR1.opus
</region>

<region>
hivel=127
key=E3
lovel=104
offset=688
sample=Tenors_Solo_Drum_4_HotRods_Hit_FF_D4_RR1.opus
</region>

<region>
hivel=77
key=E3
lovel=52
offset=4228
sample=Tenors_Solo_Drum_4_HotRods_Hit_MF_D4_RR1.opus
</region>

<region>
hivel=51
key=E3
lovel=26
offset=4262
sample=Tenors_Solo_Drum_4_HotRods_Hit_MP_D4_RR1.opus
</region>

<region>
hivel=25
key=E3
lovel=0
offset=5156
sample=Tenors_Solo_Drum_4_HotRods_Hit_P_D4_RR1.opus
</region>

<region>
hivel=103
key=D#3
lovel=78
offset=3510
sample=Tenors_Solo_Drum_5_HotRods_Hit_F_D4_RR1.opus
</region>

<region>
hivel=127
key=D#3
lovel=104
offset=711
sample=Tenors_Solo_Drum_5_HotRods_Hit_FF_D4_RR1.opus
</region>

<region>
hivel=77
key=D#3
lovel=52
offset=4801
sample=Tenors_Solo_Drum_5_HotRods_Hit_MF_D4_RR1.opus
</region>

<region>
hivel=51
key=D#3
lovel=26
offset=4675
sample=Tenors_Solo_Drum_5_HotRods_Hit_MP_D4_RR1.opus
</region>

<region>
hivel=25
key=D#3
lovel=0
offset=5050
sample=Tenors_Solo_Drum_5_HotRods_Hit_P_D4_RR1.opus
</region>

<region>
hivel=103
key=D3
lovel=78
offset=3865
sample=Tenors_Solo_Drum_6_HotRods_Hit_F_D4_RR1.opus
</region>

<region>
hivel=127
key=D3
lovel=104
offset=2783
sample=Tenors_Solo_Drum_6_HotRods_Hit_FF_D4_RR1.opus
</region>

<region>
hivel=77
key=D3
lovel=52
offset=4199
sample=Tenors_Solo_Drum_6_HotRods_Hit_MF_D4_RR1.opus
</region>

<region>
hivel=51
key=D3
lovel=26
offset=4467
sample=Tenors_Solo_Drum_6_HotRods_Hit_MP_D4_RR1.opus
</region>

<region>
hivel=25
key=D3
lovel=0
offset=4831
sample=Tenors_Solo_Drum_6_HotRods_Hit_P_D4_RR1.opus
</region>
</group>

<group>
group_label=RR3
seq_length=4
seq_position=2

<region>
hivel=103
key=G3
lovel=78
offset=4409
sample=Tenors_Solo_Drum_1_HotRods_Hit_F_D4_RR3.opus
</region>

<region>
hivel=127
key=G3
lovel=104
offset=4539
sample=Tenors_Solo_Drum_1_HotRods_Hit_FF_D4_RR3.opus
</region>

<region>
hivel=77
key=G3
lovel=52
offset=5505
sample=Tenors_Solo_Drum_1_HotRods_Hit_MF_D4_RR3.opus
</region>

<region>
hivel=51
key=G3
lovel=26
offset=4450
sample=Tenors_Solo_Drum_1_HotRods_Hit_MP_D4_RR3.opus
</region>

<region>
hivel=25
key=G3
lovel=0
offset=5300
sample=Tenors_Solo_Drum_1_HotRods_Hit_P_D4_RR3.opus
</region>

<region>
hivel=103
key=F#3
lovel=78
offset=4411
sample=Tenors_Solo_Drum_2_HotRods_Hit_F_D4_RR3.opus
</region>

<region>
hivel=127
key=F#3
lovel=104
offset=2889
sample=Tenors_Solo_Drum_2_HotRods_Hit_FF_D4_RR3.opus
</region>

<region>
hivel=77
key=F#3
lovel=52
offset=3742
sample=Tenors_Solo_Drum_2_HotRods_Hit_MF_D4_RR3.opus
</region>

<region>
hivel=51
key=F#3
lovel=26
offset=5200
sample=Tenors_Solo_Drum_2_HotRods_Hit_MP_D4_RR3.opus
</region>

<region>
hivel=25
key=F#3
lovel=0
offset=1279
sample=Tenors_Solo_Drum_2_HotRods_Hit_P_D4_RR3.opus
</region>

<region>
hivel=103
key=F3
lovel=78
offset=3817
sample=Tenors_Solo_Drum_3_HotRods_Hit_F_D4_RR3.opus
</region>

<region>
hivel=127
key=F3
lovel=104
offset=707
sample=Tenors_Solo_Drum_3_HotRods_Hit_FF_D4_RR3.opus
</region>

<region>
hivel=77
key=F3
lovel=52
offset=3740
sample=Tenors_Solo_Drum_3_HotRods_Hit_MF_D4_RR3.opus
</region>

<region>
hivel=51
key=F3
lovel=26
offset=3522
sample=Tenors_Solo_Drum_3_HotRods_Hit_MP_D4_RR3.opus
</region>

<region>
hivel=25
key=F3
lovel=0
offset=5170
sample=Tenors_Solo_Drum_3_HotRods_Hit_P_D4_RR3.opus
</region>

<region>
hivel=103
key=E3
lovel=78
offset=3741
sample=Tenors_Solo_Drum_4_HotRods_Hit_F_D4_RR3.opus
</region>

<region>
hivel=127
key=E3
lovel=104
offset=704
sample=Tenors_Solo_Drum_4_HotRods_Hit_FF_D4_RR3.opus
</region>

<region>
hivel=77
key=E3
lovel=52
offset=3531
sample=Tenors_Solo_Drum_4_HotRods_Hit_MF_D4_RR3.opus
</region>

<region>
hivel=51
key=E3
lovel=26
offset=5218
sample=Tenors_Solo_Drum_4_HotRods_Hit_MP_D4_RR3.opus
</region>

<region>
hivel=25
key=E3
lovel=0
offset=4110
sample=Tenors_Solo_Drum_4_HotRods_Hit_P_D4_RR3.opus
</region>

<region>
hivel=103
key=D#3
lovel=78
offset=3480
sample=Tenors_Solo_Drum_5_HotRods_Hit_F_D4_RR3.opus
</region>

<region>
hivel=127
key=D#3
lovel=104
offset=584
sample=Tenors_Solo_Drum_5_HotRods_Hit_FF_D4_RR3.opus
</region>

<region>
hivel=77
key=D#3
lovel=52
offset=2902
sample=Tenors_Solo_Drum_5_HotRods_Hit_MF_D4_RR3.opus
</region>

<region>
hivel=51
key=D#3
lovel=26
offset=4528
sample=Tenors_Solo_Drum_5_HotRods_Hit_MP_D4_RR3.opus
</region>

<region>
hivel=25
key=D#3
lovel=0
offset=5235
sample=Tenors_Solo_Drum_5_HotRods_Hit_P_D4_RR3.opus
</region>

<region>
hivel=103
key=D3
lovel=78
offset=3461
sample=Tenors_Solo_Drum_6_HotRods_Hit_F_D4_RR3.opus
</region>

<region>
hivel=127
key=D3
lovel=104
offset=687
sample=Tenors_Solo_Drum_6_HotRods_Hit_FF_D4_RR3.opus
</region>

<region>
hivel=77
key=D3
lovel=52
offset=4421
sample=Tenors_Solo_Drum_6_HotRods_Hit_MF_D4_RR3.opus
</region>

<region>
hivel=51
key=D3
lovel=26
offset=2629
sample=Tenors_Solo_Drum_6_HotRods_Hit_MP_D4_RR3.opus
</region>

<region>
hivel=25
key=D3
lovel=0
offset=5933
sample=Tenors_Solo_Drum_6_HotRods_Hit_P_D4_RR3.opus
</region>
</group>

<group>
group_label=RR5
seq_length=4
seq_position=3

<region>
hivel=103
key=G3
lovel=78
offset=5402
sample=Tenors_Solo_Drum_1_HotRods_Hit_F_D4_RR5.opus
</region>

<region>
hivel=127
key=G3
lovel=104
offset=706
sample=Tenors_Solo_Drum_1_HotRods_Hit_FF_D4_RR5.opus
</region>

<region>
hivel=77
key=G3
lovel=52
offset=5327
sample=Tenors_Solo_Drum_1_HotRods_Hit_MF_D4_RR5.opus
</region>

<region>
hivel=51
key=G3
lovel=26
offset=4825
sample=Tenors_Solo_Drum_1_HotRods_Hit_MP_D4_RR5.opus
</region>

<region>
hivel=25
key=G3
lovel=0
offset=4398
sample=Tenors_Solo_Drum_1_HotRods_Hit_P_D4_RR5.opus
</region>

<region>
hivel=103
key=F#3
lovel=78
offset=4145
sample=Tenors_Solo_Drum_2_HotRods_Hit_F_D4_RR5.opus
</region>

<region>
hivel=127
key=F#3
lovel=104
offset=3701
sample=Tenors_Solo_Drum_2_HotRods_Hit_FF_D4_RR5.opus
</region>

<region>
hivel=77
key=F#3
lovel=52
offset=4442
sample=Tenors_Solo_Drum_2_HotRods_Hit_MF_D4_RR5.opus
</region>

<region>
hivel=51
key=F#3
lovel=26
offset=5270
sample=Tenors_Solo_Drum_2_HotRods_Hit_MP_D4_RR5.opus
</region>

<region>
hivel=25
key=F#3
lovel=0
offset=3401
sample=Tenors_Solo_Drum_2_HotRods_Hit_P_D4_RR5.opus
</region>

<region>
hivel=103
key=F3
lovel=78
offset=4787
sample=Tenors_Solo_Drum_3_HotRods_Hit_F_D4_RR5.opus
</region>

<region>
hivel=127
key=F3
lovel=104
offset=668
sample=Tenors_Solo_Drum_3_HotRods_Hit_FF_D4_RR5.opus
</region>

<region>
hivel=77
key=F3
lovel=52
offset=4565
sample=Tenors_Solo_Drum_3_HotRods_Hit_MF_D4_RR5.opus
</region>

<region>
hivel=51
key=F3
lovel=26
offset=4588
sample=Tenors_Solo_Drum_3_HotRods_Hit_MP_D4_RR5.opus
</region>

<region>
hivel=25
key=F3
lovel=0
offset=4590
sample=Tenors_Solo_Drum_3_HotRods_Hit_P_D4_RR5.opus
</region>

<region>
hivel=103
key=E3
lovel=78
offset=3324
sample=Tenors_Solo_Drum_4_HotRods_Hit_F_D4_RR5.opus
</region>

<region>
hivel=127
key=E3
lovel=104
offset=709
sample=Tenors_Solo_Drum_4_HotRods_Hit_FF_D4_RR5.opus
</region>

<region>
hivel=77
key=E3
lovel=52
offset=4348
sample=Tenors_Solo_Drum_4_HotRods_Hit_MF_D4_RR5.opus
</region>

<region>
hivel=51
key=E3
lovel=26
offset=5408
sample=Tenors_Solo_Drum_4_HotRods_Hit_MP_D4_RR5.opus
</region>

<region>
hivel=25
key=E3
lovel=0
offset=4003
sample=Tenors_Solo_Drum_4_HotRods_Hit_P_D4_RR5.opus
</region>

<region>
hivel=103
key=D#3
lovel=78
offset=4960
sample=Tenors_Solo_Drum_5_HotRods_Hit_F_D4_RR5.opus
</region>

<region>
hivel=127
key=D#3
lovel=104
offset=628
sample=Tenors_Solo_Drum_5_HotRods_Hit_FF_D4_RR5.opus
</region>

<region>
hivel=77
key=D#3
lovel=52
offset=4398
sample=Tenors_Solo_Drum_5_HotRods_Hit_MF_D4_RR5.opus
</region>

<region>
hivel=51
key=D#3
lovel=26
offset=4699
sample=Tenors_Solo_Drum_5_HotRods_Hit_MP_D4_RR5.opus
</region>

<region>
hivel=25
key=D#3
lovel=0
offset=5757
sample=Tenors_Solo_Drum_5_HotRods_Hit_P_D4_RR5.opus
</region>

<region>
hivel=103
key=D3
lovel=78
offset=4674
sample=Tenors_Solo_Drum_6_HotRods_Hit_F_D4_RR5.opus
</region>

<region>
hivel=127
key=D3
lovel=104
offset=3263
sample=Tenors_Solo_Drum_6_HotRods_Hit_FF_D4_RR5.opus
</region>

<region>
hivel=77
key=D3
lovel=52
offset=4182
sample=Tenors_Solo_Drum_6_HotRods_Hit_MF_D4_RR5.opus
</region>

<region>
hivel=51
key=D3
lovel=26
offset=3634
sample=Tenors_Solo_Drum_6_HotRods_Hit_MP_D4_RR5.opus
</region>

<region>
hivel=25
key=D3
lovel=0
offset=6670
sample=Tenors_Solo_Drum_6_HotRods_Hit_P_D4_RR5.opus
</region>
</group>

<group>
group_label=RR7
seq_length=4
seq_position=4

<region>
hivel=103
key=G3
lovel=78
offset=4539
sample=Tenors_Solo_Drum_1_HotRods_Hit_F_D4_RR7.opus
</region>

<region>
hivel=127
key=G3
lovel=104
offset=3823
sample=Tenors_Solo_Drum_1_HotRods_Hit_FF_D4_RR7.opus
</region>

<region>
hivel=77
key=G3
lovel=52
offset=5190
sample=Tenors_Solo_Drum_1_HotRods_Hit_MF_D4_RR7.opus
</region>

<region>
hivel=51
key=G3
lovel=26
offset=4338
sample=Tenors_Solo_Drum_1_HotRods_Hit_MP_D4_RR7.opus
</region>

<region>
hivel=25
key=G3
lovel=0
offset=5261
sample=Tenors_Solo_Drum_1_HotRods_Hit_P_D4_RR7.opus
</region>

<region>
hivel=103
key=F#3
lovel=78
offset=4203
sample=Tenors_Solo_Drum_2_HotRods_Hit_F_D4_RR7.opus
</region>

<region>
hivel=127
key=F#3
lovel=104
offset=587
sample=Tenors_Solo_Drum_2_HotRods_Hit_FF_D4_RR7.opus
</region>

<region>
hivel=77
key=F#3
lovel=52
offset=4666
sample=Tenors_Solo_Drum_2_HotRods_Hit_MF_D4_RR7.opus
</region>

<region>
hivel=51
key=F#3
lovel=26
offset=5687
sample=Tenors_Solo_Drum_2_HotRods_Hit_MP_D4_RR7.opus
</region>

<region>
hivel=25
key=F#3
lovel=0
offset=2764
sample=Tenors_Solo_Drum_2_HotRods_Hit_P_D4_RR7.opus
</region>

<region>
hivel=103
key=F3
lovel=78
offset=4794
sample=Tenors_Solo_Drum_3_HotRods_Hit_F_D4_RR7.opus
</region>

<region>
hivel=127
key=F3
lovel=104
offset=714
sample=Tenors_Solo_Drum_3_HotRods_Hit_FF_D4_RR7.opus
</region>

<region>
hivel=77
key=F3
lovel=52
offset=5077
sample=Tenors_Solo_Drum_3_HotRods_Hit_MF_D4_RR7.opus
</region>

<region>
hivel=51
key=F3
lovel=26
offset=2823
sample=Tenors_Solo_Drum_3_HotRods_Hit_MP_D4_RR7.opus
</region>

<region>
hivel=25
key=F3
lovel=0
offset=5219
sample=Tenors_Solo_Drum_3_HotRods_Hit_P_D4_RR7.opus
</region>

<region>
hivel=103
key=E3
lovel=78
offset=3729
sample=Tenors_Solo_Drum_4_HotRods_Hit_F_D4_RR7.opus
</region>

<region>
hivel=127
key=E3
lovel=104
offset=583
sample=Tenors_Solo_Drum_4_HotRods_Hit_FF_D4_RR7.opus
</region>

<region>
hivel=77
key=E3
lovel=52
offset=3988
sample=Tenors_Solo_Drum_4_HotRods_Hit_MF_D4_RR7.opus
</region>

<region>
hivel=51
key=E3
lovel=26
offset=4435
sample=Tenors_Solo_Drum_4_HotRods_Hit_MP_D4_RR7.opus
</region>

<region>
hivel=25
key=E3
lovel=0
offset=5135
sample=Tenors_Solo_Drum_4_HotRods_Hit_P_D4_RR7.opus
</region>

<region>
hivel=103
key=D#3
lovel=78
offset=4342
sample=Tenors_Solo_Drum_5_HotRods_Hit_F_D4_RR7.opus
</region>

<region>
hivel=127
key=D#3
lovel=104
offset=5376
sample=Tenors_Solo_Drum_5_HotRods_Hit_FF_D4_RR7.opus
</region>

<region>
hivel=77
key=D#3
lovel=52
offset=4297
sample=Tenors_Solo_Drum_5_HotRods_Hit_MF_D4_RR7.opus
</region>

<region>
hivel=51
key=D#3
lovel=26
offset=4931
sample=Tenors_Solo_Drum_5_HotRods_Hit_MP_D4_RR7.opus
</region>

<region>
hivel=25
key=D#3
lovel=0
offset=6191
sample=Tenors_Solo_Drum_5_HotRods_Hit_P_D4_RR7.opus
</region>

<region>
hivel=103
key=D3
lovel=78
offset=3460
sample=Tenors_Solo_Drum_6_HotRods_Hit_F_D4_RR7.opus
</region>

<region>
hivel=127
key=D3
lovel=104
offset=2752
sample=Tenors_Solo_Drum_6_HotRods_Hit_FF_D4_RR7.opus
</region>

<region>
hivel=77
key=D3
lovel=52
offset=5396
sample=Tenors_Solo_Drum_6_HotRods_Hit_MF_D4_RR7.opus
</region>

<region>
hivel=51
key=D3
lovel=26
offset=3719
sample=Tenors_Solo_Drum_6_HotRods_Hit_MP_D4_RR7.opus
</region>

<region>
hivel=25
key=D3
lovel=0
offset=5242
sample=Tenors_Solo_Drum_6_HotRods_Hit_P_D4_RR7.opus
</region>
</group>

<group>
color=green
group_label=Alt_Hits_RR1
seq_length=2
seq_position=1

<region>
hivel=103
key=G4
lovel=78
offset=5380
sample=Tenors_Solo_Drum_1_HotRods_Muted_Hit_F_D4_RR1.opus
</region>

<region>
hivel=127
key=G4
lovel=104
offset=6112
sample=Tenors_Solo_Drum_1_HotRods_Muted_Hit_FF_D4_RR1.opus
</region>

<region>
hivel=77
key=G4
lovel=52
offset=4681
sample=Tenors_Solo_Drum_1_HotRods_Muted_Hit_MF_D4_RR1.opus
</region>

<region>
hivel=51
key=G4
lovel=26
offset=3343
sample=Tenors_Solo_Drum_1_HotRods_Muted_Hit_MP_D4_RR1.opus
</region>

<region>
hivel=25
key=G4
lovel=0
offset=4853
sample=Tenors_Solo_Drum_1_HotRods_Muted_Hit_P_D4_RR1.opus
</region>

<region>
hivel=103
key=G5
lovel=78
offset=4154
sample=Tenors_Solo_Drum_1_HotRods_Rim_Hit_F_D4_RR1.opus
</region>

<region>
hivel=127
key=G5
lovel=104
offset=3821
sample=Tenors_Solo_Drum_1_HotRods_Rim_Hit_FF_D4_RR1.opus
</region>

<region>
hivel=77
key=G5
lovel=52
offset=4396
sample=Tenors_Solo_Drum_1_HotRods_Rim_Hit_MF_D4_RR1.opus
</region>

<region>
hivel=51
key=G5
lovel=26
offset=4054
sample=Tenors_Solo_Drum_1_HotRods_Rim_Hit_MP_D4_RR1.opus
</region>

<region>
hivel=25
key=G5
lovel=0
offset=3875
sample=Tenors_Solo_Drum_1_HotRods_Rim_Hit_P_D4_RR1.opus
</region>

<region>
hivel=103
key=F#4
lovel=78
offset=3403
sample=Tenors_Solo_Drum_2_HotRods_Muted_Hit_F_D4_RR1.opus
</region>

<region>
hivel=127
key=F#4
lovel=104
offset=2761
sample=Tenors_Solo_Drum_2_HotRods_Muted_Hit_FF_D4_RR1.opus
</region>

<region>
hivel=77
key=F#4
lovel=52
offset=4581
sample=Tenors_Solo_Drum_2_HotRods_Muted_Hit_MF_D4_RR1.opus
</region>

<region>
hivel=51
key=F#4
lovel=26
offset=5636
sample=Tenors_Solo_Drum_2_HotRods_Muted_Hit_MP_D4_RR1.opus
</region>

<region>
hivel=25
key=F#4
lovel=0
offset=3593
sample=Tenors_Solo_Drum_2_HotRods_Muted_Hit_P_D4_RR1.opus
</region>

<region>
hivel=103
key=F#5
lovel=78
offset=4348
sample=Tenors_Solo_Drum_2_HotRods_Rim_Hit_F_D4_RR1.opus
</region>

<region>
hivel=127
key=F#5
lovel=104
offset=3363
sample=Tenors_Solo_Drum_2_HotRods_Rim_Hit_FF_D4_RR1.opus
</region>

<region>
hivel=77
key=F#5
lovel=52
offset=4501
sample=Tenors_Solo_Drum_2_HotRods_Rim_Hit_MF_D4_RR1.opus
</region>

<region>
hivel=51
key=F#5
lovel=26
offset=4557
sample=Tenors_Solo_Drum_2_HotRods_Rim_Hit_MP_D4_RR1.opus
</region>

<region>
hivel=25
key=F#5
lovel=0
offset=2420
sample=Tenors_Solo_Drum_2_HotRods_Rim_Hit_P_D4_RR1.opus
</region>

<region>
hivel=103
key=F4
lovel=78
offset=3701
sample=Tenors_Solo_Drum_3_HotRods_Muted_Hit_F_D4_RR1.opus
</region>

<region>
hivel=127
key=F4
lovel=104
offset=3270
sample=Tenors_Solo_Drum_3_HotRods_Muted_Hit_FF_D4_RR1.opus
</region>

<region>
hivel=77
key=F4
lovel=52
offset=3431
sample=Tenors_Solo_Drum_3_HotRods_Muted_Hit_MF_D4_RR1.opus
</region>

<region>
hivel=51
key=F4
lovel=26
offset=3359
sample=Tenors_Solo_Drum_3_HotRods_Muted_Hit_MP_D4_RR1.opus
</region>

<region>
hivel=25
key=F4
lovel=0
offset=4715
sample=Tenors_Solo_Drum_3_HotRods_Muted_Hit_P_D4_RR1.opus
</region>

<region>
hivel=103
key=F5
lovel=78
offset=3870
sample=Tenors_Solo_Drum_3_HotRods_Rim_Hit_F_D4_RR1.opus
</region>

<region>
hivel=127
key=F5
lovel=104
offset=6254
sample=Tenors_Solo_Drum_3_HotRods_Rim_Hit_FF_D4_RR1.opus
</region>

<region>
hivel=77
key=F5
lovel=52
offset=3745
sample=Tenors_Solo_Drum_3_HotRods_Rim_Hit_MF_D4_RR1.opus
</region>

<region>
hivel=51
key=F5
lovel=26
offset=4071
sample=Tenors_Solo_Drum_3_HotRods_Rim_Hit_MP_D4_RR1.opus
</region>

<region>
hivel=25
key=F5
lovel=0
offset=5869
sample=Tenors_Solo_Drum_3_HotRods_Rim_Hit_P_D4_RR1.opus
</region>

<region>
hivel=103
key=E4
lovel=78
offset=2924
sample=Tenors_Solo_Drum_4_HotRods_Muted_Hit_F_D4_RR1.opus
</region>

<region>
hivel=127
key=E4
lovel=104
offset=3280
sample=Tenors_Solo_Drum_4_HotRods_Muted_Hit_FF_D4_RR1.opus
</region>

<region>
hivel=77
key=E4
lovel=52
offset=4389
sample=Tenors_Solo_Drum_4_HotRods_Muted_Hit_MF_D4_RR1.opus
</region>

<region>
hivel=51
key=E4
lovel=26
offset=5425
sample=Tenors_Solo_Drum_4_HotRods_Muted_Hit_MP_D4_RR1.opus
</region>

<region>
hivel=25
key=E4
lovel=0
offset=4512
sample=Tenors_Solo_Drum_4_HotRods_Muted_Hit_P_D4_RR1.opus
</region>

<region>
hivel=103
key=E5
lovel=78
offset=4578
sample=Tenors_Solo_Drum_4_HotRods_Rim_Hit_F_D4_RR1.opus
</region>

<region>
hivel=127
key=E5
lovel=104
offset=3864
sample=Tenors_Solo_Drum_4_HotRods_Rim_Hit_FF_D4_RR1.opus
</region>

<region>
hivel=77
key=E5
lovel=52
offset=3631
sample=Tenors_Solo_Drum_4_HotRods_Rim_Hit_MF_D4_RR1.opus
</region>

<region>
hivel=51
key=E5
lovel=26
offset=4626
sample=Tenors_Solo_Drum_4_HotRods_Rim_Hit_MP_D4_RR1.opus
</region>

<region>
hivel=25
key=E5
lovel=0
offset=4060
sample=Tenors_Solo_Drum_4_HotRods_Rim_Hit_P_D4_RR1.opus
</region>

<region>
hivel=103
key=D#4
lovel=78
offset=4713
sample=Tenors_Solo_Drum_5_HotRods_Muted_Hit_F_D4_RR1.opus
</region>

<region>
hivel=127
key=D#4
lovel=104
offset=6340
sample=Tenors_Solo_Drum_5_HotRods_Muted_Hit_FF_D4_RR1.opus
</region>

<region>
hivel=77
key=D#4
lovel=52
offset=5631
sample=Tenors_Solo_Drum_5_HotRods_Muted_Hit_MF_D4_RR1.opus
</region>

<region>
hivel=51
key=D#4
lovel=26
offset=4020
sample=Tenors_Solo_Drum_5_HotRods_Muted_Hit_MP_D4_RR1.opus
</region>

<region>
hivel=25
key=D#4
lovel=0
offset=4317
sample=Tenors_Solo_Drum_5_HotRods_Muted_Hit_P_D4_RR1.opus
</region>

<region>
hivel=103
key=D#5
lovel=78
offset=5522
sample=Tenors_Solo_Drum_5_HotRods_Rim_Hit_F_D4_RR1.opus
</region>

<region>
hivel=127
key=D#5
lovel=104
offset=5074
sample=Tenors_Solo_Drum_5_HotRods_Rim_Hit_FF_D4_RR1.opus
</region>

<region>
hivel=77
key=D#5
lovel=52
offset=4429
sample=Tenors_Solo_Drum_5_HotRods_Rim_Hit_MF_D4_RR1.opus
</region>

<region>
hivel=51
key=D#5
lovel=26
offset=3998
sample=Tenors_Solo_Drum_5_HotRods_Rim_Hit_MP_D4_RR1.opus
</region>

<region>
hivel=25
key=D#5
lovel=0
offset=4820
sample=Tenors_Solo_Drum_5_HotRods_Rim_Hit_P_D4_RR1.opus
</region>

<region>
hivel=103
key=D4
lovel=78
offset=3498
sample=Tenors_Solo_Drum_6_HotRods_Muted_Hit_F_D4_RR1.opus
</region>

<region>
hivel=127
key=D4
lovel=104
offset=4940
sample=Tenors_Solo_Drum_6_HotRods_Muted_Hit_FF_D4_RR1.opus
</region>

<region>
hivel=77
key=D4
lovel=52
offset=4363
sample=Tenors_Solo_Drum_6_HotRods_Muted_Hit_MF_D4_RR1.opus
</region>

<region>
hivel=51
key=D4
lovel=26
offset=2346
sample=Tenors_Solo_Drum_6_HotRods_Muted_Hit_MP_D4_RR1.opus
</region>

<region>
hivel=25
key=D4
lovel=0
offset=5346
sample=Tenors_Solo_Drum_6_HotRods_Muted_Hit_P_D4_RR1.opus
</region>

<region>
hivel=103
key=D5
lovel=78
offset=3503
sample=Tenors_Solo_Drum_6_HotRods_Rim_Hit_F_D4_RR1.opus
</region>

<region>
hivel=127
key=D5
lovel=104
offset=2885
sample=Tenors_Solo_Drum_6_HotRods_Rim_Hit_FF_D4_RR1.opus
</region>

<region>
hivel=77
key=D5
lovel=52
offset=4282
sample=Tenors_Solo_Drum_6_HotRods_Rim_Hit_MF_D4_RR1.opus
</region>

<region>
hivel=51
key=D5
lovel=26
offset=1546
sample=Tenors_Solo_Drum_6_HotRods_Rim_Hit_MP_D4_RR1.opus
</region>

<region>
hivel=25
key=D5
lovel=0
offset=4617
sample=Tenors_Solo_Drum_6_HotRods_Rim_Hit_P_D4_RR1.opus
</region>
</group>

<group>
color=green
group_label=Alt_Hits_RR3
seq_length=2
seq_position=2

<region>
hivel=103
key=G4
lovel=78
offset=4314
sample=Tenors_Solo_Drum_1_HotRods_Muted_Hit_F_D4_RR3.opus
</region>

<region>
hivel=127
key=G4
lovel=104
offset=4543
sample=Tenors_Solo_Drum_1_HotRods_Muted_Hit_FF_D4_RR3.opus
</region>

<region>
hivel=77
key=G4
lovel=52
offset=4687
sample=Tenors_Solo_Drum_1_HotRods_Muted_Hit_MF_D4_RR3.opus
</region>

<region>
hivel=51
key=G4
lovel=26
offset=5212
sample=Tenors_Solo_Drum_1_HotRods_Muted_Hit_MP_D4_RR3.opus
</region>

<region>
hivel=25
key=G4
lovel=0
offset=5570
sample=Tenors_Solo_Drum_1_HotRods_Muted_Hit_P_D4_RR3.opus
</region>

<region>
hivel=103
key=G5
lovel=78
offset=4850
sample=Tenors_Solo_Drum_1_HotRods_Rim_Hit_F_D4_RR3.opus
</region>

<region>
hivel=127
key=G5
lovel=104
offset=5053
sample=Tenors_Solo_Drum_1_HotRods_Rim_Hit_FF_D4_RR3.opus
</region>

<region>
hivel=77
key=G5
lovel=52
offset=3990
sample=Tenors_Solo_Drum_1_HotRods_Rim_Hit_MF_D4_RR3.opus
</region>

<region>
hivel=51
key=G5
lovel=26
offset=4278
sample=Tenors_Solo_Drum_1_HotRods_Rim_Hit_MP_D4_RR3.opus
</region>

<region>
hivel=25
key=G5
lovel=0
offset=4161
sample=Tenors_Solo_Drum_1_HotRods_Rim_Hit_P_D4_RR3.opus
</region>

<region>
hivel=103
key=F#4
lovel=78
offset=4248
sample=Tenors_Solo_Drum_2_HotRods_Muted_Hit_F_D4_RR3.opus
</region>

<region>
hivel=127
key=F#4
lovel=104
offset=2876
sample=Tenors_Solo_Drum_2_HotRods_Muted_Hit_FF_D4_RR3.opus
</region>

<region>
hivel=77
key=F#4
lovel=52
offset=3835
sample=Tenors_Solo_Drum_2_HotRods_Muted_Hit_MF_D4_RR3.opus
</region>

<region>
hivel=51
key=F#4
lovel=26
offset=5419
sample=Tenors_Solo_Drum_2_HotRods_Muted_Hit_MP_D4_RR3.opus
</region>

<region>
hivel=25
key=F#4
lovel=0
offset=2959
sample=Tenors_Solo_Drum_2_HotRods_Muted_Hit_P_D4_RR3.opus
</region>

<region>
hivel=103
key=F#5
lovel=78
offset=4445
sample=Tenors_Solo_Drum_2_HotRods_Rim_Hit_F_D4_RR3.opus
</region>

<region>
hivel=127
key=F#5
lovel=104
offset=2530
sample=Tenors_Solo_Drum_2_HotRods_Rim_Hit_FF_D4_RR3.opus
</region>

<region>
hivel=77
key=F#5
lovel=52
offset=3898
sample=Tenors_Solo_Drum_2_HotRods_Rim_Hit_MF_D4_RR3.opus
</region>

<region>
hivel=51
key=F#5
lovel=26
offset=6093
sample=Tenors_Solo_Drum_2_HotRods_Rim_Hit_MP_D4_RR3.opus
</region>

<region>
hivel=25
key=F#5
lovel=0
offset=1313
sample=Tenors_Solo_Drum_2_HotRods_Rim_Hit_P_D4_RR3.opus
</region>

<region>
hivel=103
key=F4
lovel=78
offset=3585
sample=Tenors_Solo_Drum_3_HotRods_Muted_Hit_F_D4_RR3.opus
</region>

<region>
hivel=127
key=F4
lovel=104
offset=2036
sample=Tenors_Solo_Drum_3_HotRods_Muted_Hit_FF_D4_RR3.opus
</region>

<region>
hivel=77
key=F4
lovel=52
offset=4338
sample=Tenors_Solo_Drum_3_HotRods_Muted_Hit_MF_D4_RR3.opus
</region>

<region>
hivel=51
key=F4
lovel=26
offset=4155
sample=Tenors_Solo_Drum_3_HotRods_Muted_Hit_MP_D4_RR3.opus
</region>

<region>
hivel=25
key=F4
lovel=0
offset=6206
sample=Tenors_Solo_Drum_3_HotRods_Muted_Hit_P_D4_RR3.opus
</region>

<region>
hivel=103
key=F5
lovel=78
offset=4426
sample=Tenors_Solo_Drum_3_HotRods_Rim_Hit_F_D4_RR3.opus
</region>

<region>
hivel=127
key=F5
lovel=104
offset=5411
sample=Tenors_Solo_Drum_3_HotRods_Rim_Hit_FF_D4_RR3.opus
</region>

<region>
hivel=77
key=F5
lovel=52
offset=3559
sample=Tenors_Solo_Drum_3_HotRods_Rim_Hit_MF_D4_RR3.opus
</region>

<region>
hivel=51
key=F5
lovel=26
offset=3628
sample=Tenors_Solo_Drum_3_HotRods_Rim_Hit_MP_D4_RR3.opus
</region>

<region>
hivel=25
key=F5
lovel=0
offset=4168
sample=Tenors_Solo_Drum_3_HotRods_Rim_Hit_P_D4_RR3.opus
</region>

<region>
hivel=103
key=E4
lovel=78
offset=2880
sample=Tenors_Solo_Drum_4_HotRods_Muted_Hit_F_D4_RR3.opus
</region>

<region>
hivel=127
key=E4
lovel=104
offset=699
sample=Tenors_Solo_Drum_4_HotRods_Muted_Hit_FF_D4_RR3.opus
</region>

<region>
hivel=77
key=E4
lovel=52
offset=4008
sample=Tenors_Solo_Drum_4_HotRods_Muted_Hit_MF_D4_RR3.opus
</region>

<region>
hivel=51
key=E4
lovel=26
offset=4130
sample=Tenors_Solo_Drum_4_HotRods_Muted_Hit_MP_D4_RR3.opus
</region>

<region>
hivel=25
key=E4
lovel=0
offset=4991
sample=Tenors_Solo_Drum_4_HotRods_Muted_Hit_P_D4_RR3.opus
</region>

<region>
hivel=103
key=E5
lovel=78
offset=2298
sample=Tenors_Solo_Drum_4_HotRods_Rim_Hit_F_D4_RR3.opus
</region>

<region>
hivel=127
key=E5
lovel=104
offset=4435
sample=Tenors_Solo_Drum_4_HotRods_Rim_Hit_FF_D4_RR3.opus
</region>

<region>
hivel=77
key=E5
lovel=52
offset=3497
sample=Tenors_Solo_Drum_4_HotRods_Rim_Hit_MF_D4_RR3.opus
</region>

<region>
hivel=51
key=E5
lovel=26
offset=3908
sample=Tenors_Solo_Drum_4_HotRods_Rim_Hit_MP_D4_RR3.opus
</region>

<region>
hivel=25
key=E5
lovel=0
offset=4074
sample=Tenors_Solo_Drum_4_HotRods_Rim_Hit_P_D4_RR3.opus
</region>

<region>
hivel=103
key=D#4
lovel=78
offset=3142
sample=Tenors_Solo_Drum_5_HotRods_Muted_Hit_F_D4_RR3.opus
</region>

<region>
hivel=127
key=D#4
lovel=104
offset=1551
sample=Tenors_Solo_Drum_5_HotRods_Muted_Hit_FF_D4_RR3.opus
</region>

<region>
hivel=77
key=D#4
lovel=52
offset=4199
sample=Tenors_Solo_Drum_5_HotRods_Muted_Hit_MF_D4_RR3.opus
</region>

<region>
hivel=51
key=D#4
lovel=26
offset=3987
sample=Tenors_Solo_Drum_5_HotRods_Muted_Hit_MP_D4_RR3.opus
</region>

<region>
hivel=25
key=D#4
lovel=0
offset=6746
sample=Tenors_Solo_Drum_5_HotRods_Muted_Hit_P_D4_RR3.opus
</region>

<region>
hivel=103
key=D#5
lovel=78
offset=4211
sample=Tenors_Solo_Drum_5_HotRods_Rim_Hit_F_D4_RR3.opus
</region>

<region>
hivel=127
key=D#5
lovel=104
offset=5181
sample=Tenors_Solo_Drum_5_HotRods_Rim_Hit_FF_D4_RR3.opus
</region>

<region>
hivel=77
key=D#5
lovel=52
offset=3651
sample=Tenors_Solo_Drum_5_HotRods_Rim_Hit_MF_D4_RR3.opus
</region>

<region>
hivel=51
key=D#5
lovel=26
offset=4128
sample=Tenors_Solo_Drum_5_HotRods_Rim_Hit_MP_D4_RR3.opus
</region>

<region>
hivel=25
key=D#5
lovel=0
offset=5313
sample=Tenors_Solo_Drum_5_HotRods_Rim_Hit_P_D4_RR3.opus
</region>

<region>
hivel=103
key=D4
lovel=78
offset=3706
sample=Tenors_Solo_Drum_6_HotRods_Muted_Hit_F_D4_RR3.opus
</region>

<region>
hivel=127
key=D4
lovel=104
offset=1789
sample=Tenors_Solo_Drum_6_HotRods_Muted_Hit_FF_D4_RR3.opus
</region>

<region>
hivel=77
key=D4
lovel=52
offset=5329
sample=Tenors_Solo_Drum_6_HotRods_Muted_Hit_MF_D4_RR3.opus
</region>

<region>
hivel=51
key=D4
lovel=26
offset=3134
sample=Tenors_Solo_Drum_6_HotRods_Muted_Hit_MP_D4_RR3.opus
</region>

<region>
hivel=25
key=D4
lovel=0
offset=5369
sample=Tenors_Solo_Drum_6_HotRods_Muted_Hit_P_D4_RR3.opus
</region>

<region>
hivel=103
key=D5
lovel=78
offset=3767
sample=Tenors_Solo_Drum_6_HotRods_Rim_Hit_F_D4_RR3.opus
</region>

<region>
hivel=127
key=D5
lovel=104
offset=3022
sample=Tenors_Solo_Drum_6_HotRods_Rim_Hit_FF_D4_RR3.opus
</region>

<region>
hivel=77
key=D5
lovel=52
offset=3865
sample=Tenors_Solo_Drum_6_HotRods_Rim_Hit_MF_D4_RR3.opus
</region>

<region>
hivel=51
key=D5
lovel=26
offset=3394
sample=Tenors_Solo_Drum_6_HotRods_Rim_Hit_MP_D4_RR3.opus
</region>

<region>
hivel=25
key=D5
lovel=0
offset=4840
sample=Tenors_Solo_Drum_6_HotRods_Rim_Hit_P_D4_RR3.opus
</region>
</group>